<mxfile host="Electron" modified="2024-02-14T16:52:11.195Z" agent="Mozilla/5.0 (Windows NT 10.0; Win64; x64) AppleWebKit/537.36 (KHTML, like Gecko) draw.io/22.1.16 Chrome/120.0.6099.109 Electron/28.1.0 Safari/537.36" etag="GAQ1yckeOjmwXRypdfyY" version="22.1.16" type="device">
  <diagram id="C5RBs43oDa-KdzZeNtuy" name="Page-1">
    <mxGraphModel dx="864" dy="508" grid="0" gridSize="10" guides="1" tooltips="1" connect="1" arrows="1" fold="1" page="1" pageScale="1" pageWidth="827" pageHeight="1169" math="0" shadow="0">
      <root>
        <mxCell id="WIyWlLk6GJQsqaUBKTNV-0" />
        <mxCell id="WIyWlLk6GJQsqaUBKTNV-1" parent="WIyWlLk6GJQsqaUBKTNV-0" />
        <mxCell id="86FwZAQYS3h-tKqfAoDZ-1" value="Extends" style="endArrow=block;endSize=16;endFill=0;html=1;rounded=0;entryX=0.25;entryY=1;entryDx=0;entryDy=0;exitX=0.5;exitY=0;exitDx=0;exitDy=0;" parent="WIyWlLk6GJQsqaUBKTNV-1" source="zkfFHV4jXpPFQw0GAbJ--6" target="86FwZAQYS3h-tKqfAoDZ-44" edge="1">
          <mxGeometry x="-0.2205" y="1" width="160" relative="1" as="geometry">
            <mxPoint x="259.25" y="671" as="sourcePoint" />
            <mxPoint x="393.2500000000002" y="570" as="targetPoint" />
            <mxPoint as="offset" />
          </mxGeometry>
        </mxCell>
        <mxCell id="86FwZAQYS3h-tKqfAoDZ-5" value="Motocicleta" style="swimlane;fontStyle=0;align=center;verticalAlign=top;childLayout=stackLayout;horizontal=1;startSize=26;horizontalStack=0;resizeParent=1;resizeLast=0;collapsible=1;marginBottom=0;rounded=0;shadow=0;strokeWidth=1;" parent="WIyWlLk6GJQsqaUBKTNV-1" vertex="1">
          <mxGeometry x="228" y="256.5" width="148" height="97" as="geometry">
            <mxRectangle x="130" y="380" width="160" height="26" as="alternateBounds" />
          </mxGeometry>
        </mxCell>
        <mxCell id="86FwZAQYS3h-tKqfAoDZ-6" value="+ ciclindrada: int&#xa;+ tipus: String" style="text;align=left;verticalAlign=top;spacingLeft=4;spacingRight=4;overflow=hidden;rotatable=0;points=[[0,0.5],[1,0.5]];portConstraint=eastwest;" parent="86FwZAQYS3h-tKqfAoDZ-5" vertex="1">
          <mxGeometry y="26" width="148" height="39" as="geometry" />
        </mxCell>
        <mxCell id="86FwZAQYS3h-tKqfAoDZ-7" value="" style="line;html=1;strokeWidth=1;align=left;verticalAlign=middle;spacingTop=-1;spacingLeft=3;spacingRight=3;rotatable=0;labelPosition=right;points=[];portConstraint=eastwest;" parent="86FwZAQYS3h-tKqfAoDZ-5" vertex="1">
          <mxGeometry y="65" width="148" height="6" as="geometry" />
        </mxCell>
        <mxCell id="V21flKf6waBubNrhIwYf-3" value="&amp;nbsp;+ toString(): String" style="text;html=1;align=left;verticalAlign=middle;resizable=0;points=[];autosize=1;strokeColor=none;fillColor=none;" vertex="1" parent="86FwZAQYS3h-tKqfAoDZ-5">
          <mxGeometry y="71" width="148" height="26" as="geometry" />
        </mxCell>
        <mxCell id="86FwZAQYS3h-tKqfAoDZ-18" value="Extends" style="endArrow=block;endSize=16;endFill=0;html=1;rounded=0;exitX=0.5;exitY=0;exitDx=0;exitDy=0;entryX=0.75;entryY=1;entryDx=0;entryDy=0;" parent="WIyWlLk6GJQsqaUBKTNV-1" source="86FwZAQYS3h-tKqfAoDZ-5" target="86FwZAQYS3h-tKqfAoDZ-44" edge="1">
          <mxGeometry x="-0.3362" y="-4" width="160" relative="1" as="geometry">
            <mxPoint x="152" y="526" as="sourcePoint" />
            <mxPoint x="472" y="563" as="targetPoint" />
            <mxPoint as="offset" />
          </mxGeometry>
        </mxCell>
        <mxCell id="86FwZAQYS3h-tKqfAoDZ-44" value="&lt;p style=&quot;margin:0px;margin-top:4px;text-align:center;&quot;&gt;&lt;i&gt;&amp;lt;&amp;lt;Abstract&amp;gt;&amp;gt;&lt;/i&gt;&lt;br&gt;&lt;b&gt;Vehicle&lt;/b&gt;&lt;/p&gt;&lt;hr size=&quot;1&quot;&gt;&lt;p style=&quot;margin:0px;margin-left:4px;&quot;&gt;+ marca: String&lt;br&gt;+ model: String&lt;/p&gt;&lt;p style=&quot;margin:0px;margin-left:4px;&quot;&gt;+ preu: double&lt;/p&gt;&lt;hr size=&quot;1&quot;&gt;&lt;p style=&quot;margin:0px;margin-left:4px;&quot;&gt;&lt;i&gt;&lt;b&gt;+ calculaImpost(): double&lt;/b&gt;&lt;/i&gt;&lt;/p&gt;&lt;p style=&quot;margin:0px;margin-left:4px;&quot;&gt;+ toString(): String&lt;/p&gt;" style="verticalAlign=top;align=left;overflow=fill;fontSize=12;fontFamily=Helvetica;html=1;whiteSpace=wrap;" parent="WIyWlLk6GJQsqaUBKTNV-1" vertex="1">
          <mxGeometry x="63" y="77" width="313" height="133" as="geometry" />
        </mxCell>
        <mxCell id="86FwZAQYS3h-tKqfAoDZ-46" value="&lt;p style=&quot;margin:0px;margin-top:4px;text-align:center;&quot;&gt;&lt;i&gt;&amp;lt;&amp;lt;Interface&amp;gt;&amp;gt;&lt;/i&gt;&lt;br&gt;&lt;b&gt;Concessionari&lt;/b&gt;&lt;/p&gt;&lt;hr size=&quot;1&quot;&gt;&lt;p style=&quot;margin:0px;margin-left:4px;&quot;&gt;&lt;br&gt;&lt;/p&gt;&lt;hr size=&quot;1&quot;&gt;&lt;p style=&quot;margin:0px;margin-left:4px;&quot;&gt;&lt;i style=&quot;border-color: var(--border-color);&quot;&gt;&lt;b style=&quot;border-color: var(--border-color);&quot;&gt;+ calculaIngressos(): double&lt;/b&gt;&lt;/i&gt;&lt;/p&gt;" style="verticalAlign=top;align=left;overflow=fill;fontSize=12;fontFamily=Helvetica;html=1;whiteSpace=wrap;" parent="WIyWlLk6GJQsqaUBKTNV-1" vertex="1">
          <mxGeometry x="478" y="77" width="280" height="94" as="geometry" />
        </mxCell>
        <mxCell id="zkfFHV4jXpPFQw0GAbJ--6" value="Automobil" style="swimlane;fontStyle=0;align=center;verticalAlign=top;childLayout=stackLayout;horizontal=1;startSize=26;horizontalStack=0;resizeParent=1;resizeLast=0;collapsible=1;marginBottom=0;rounded=0;shadow=0;strokeWidth=1;" parent="WIyWlLk6GJQsqaUBKTNV-1" vertex="1">
          <mxGeometry x="63" y="256.5" width="150" height="98" as="geometry">
            <mxRectangle x="130" y="380" width="160" height="26" as="alternateBounds" />
          </mxGeometry>
        </mxCell>
        <mxCell id="zkfFHV4jXpPFQw0GAbJ--7" value="+ numPortes: int&#xa;+ capacitatMaleter: double" style="text;align=left;verticalAlign=top;spacingLeft=4;spacingRight=4;overflow=hidden;rotatable=0;points=[[0,0.5],[1,0.5]];portConstraint=eastwest;" parent="zkfFHV4jXpPFQw0GAbJ--6" vertex="1">
          <mxGeometry y="26" width="150" height="40" as="geometry" />
        </mxCell>
        <mxCell id="zkfFHV4jXpPFQw0GAbJ--9" value="" style="line;html=1;strokeWidth=1;align=left;verticalAlign=middle;spacingTop=-1;spacingLeft=3;spacingRight=3;rotatable=0;labelPosition=right;points=[];portConstraint=eastwest;" parent="zkfFHV4jXpPFQw0GAbJ--6" vertex="1">
          <mxGeometry y="66" width="150" height="6" as="geometry" />
        </mxCell>
        <mxCell id="V21flKf6waBubNrhIwYf-0" value="&amp;nbsp;+ toString(): String" style="text;html=1;align=left;verticalAlign=middle;resizable=0;points=[];autosize=1;strokeColor=none;fillColor=none;" vertex="1" parent="zkfFHV4jXpPFQw0GAbJ--6">
          <mxGeometry y="72" width="150" height="26" as="geometry" />
        </mxCell>
        <mxCell id="bvmOk3qDwSl6TVnSMoPc-3" value="ConcessionariMoto" style="swimlane;fontStyle=0;align=center;verticalAlign=top;childLayout=stackLayout;horizontal=1;startSize=26;horizontalStack=0;resizeParent=1;resizeLast=0;collapsible=1;marginBottom=0;rounded=0;shadow=0;strokeWidth=1;" parent="WIyWlLk6GJQsqaUBKTNV-1" vertex="1">
          <mxGeometry x="636" y="261" width="184" height="96" as="geometry">
            <mxRectangle x="130" y="380" width="160" height="26" as="alternateBounds" />
          </mxGeometry>
        </mxCell>
        <mxCell id="bvmOk3qDwSl6TVnSMoPc-4" value="+ motos: ArrayList&lt;Motocicleta&gt;" style="text;align=left;verticalAlign=top;spacingLeft=4;spacingRight=4;overflow=hidden;rotatable=0;points=[[0,0.5],[1,0.5]];portConstraint=eastwest;" parent="bvmOk3qDwSl6TVnSMoPc-3" vertex="1">
          <mxGeometry y="26" width="184" height="30" as="geometry" />
        </mxCell>
        <mxCell id="bvmOk3qDwSl6TVnSMoPc-5" value="" style="line;html=1;strokeWidth=1;align=left;verticalAlign=middle;spacingTop=-1;spacingLeft=3;spacingRight=3;rotatable=0;labelPosition=right;points=[];portConstraint=eastwest;" parent="bvmOk3qDwSl6TVnSMoPc-3" vertex="1">
          <mxGeometry y="56" width="184" height="6" as="geometry" />
        </mxCell>
        <mxCell id="V21flKf6waBubNrhIwYf-6" value="&amp;nbsp;+ toString(): String" style="text;html=1;align=left;verticalAlign=middle;resizable=0;points=[];autosize=1;strokeColor=none;fillColor=none;" vertex="1" parent="bvmOk3qDwSl6TVnSMoPc-3">
          <mxGeometry y="62" width="184" height="26" as="geometry" />
        </mxCell>
        <mxCell id="bvmOk3qDwSl6TVnSMoPc-6" value="" style="endArrow=block;dashed=1;endFill=0;endSize=12;html=1;rounded=0;entryX=0.5;entryY=1;entryDx=0;entryDy=0;exitX=0.5;exitY=0;exitDx=0;exitDy=0;" parent="WIyWlLk6GJQsqaUBKTNV-1" source="bvmOk3qDwSl6TVnSMoPc-8" target="86FwZAQYS3h-tKqfAoDZ-46" edge="1">
          <mxGeometry width="160" relative="1" as="geometry">
            <mxPoint x="558" y="243" as="sourcePoint" />
            <mxPoint x="492" y="473" as="targetPoint" />
          </mxGeometry>
        </mxCell>
        <mxCell id="bvmOk3qDwSl6TVnSMoPc-7" value="" style="endArrow=block;dashed=1;endFill=0;endSize=12;html=1;rounded=0;exitX=0.5;exitY=0;exitDx=0;exitDy=0;entryX=0.5;entryY=1;entryDx=0;entryDy=0;" parent="WIyWlLk6GJQsqaUBKTNV-1" source="bvmOk3qDwSl6TVnSMoPc-3" target="86FwZAQYS3h-tKqfAoDZ-46" edge="1">
          <mxGeometry width="160" relative="1" as="geometry">
            <mxPoint x="264" y="588" as="sourcePoint" />
            <mxPoint x="308" y="514" as="targetPoint" />
          </mxGeometry>
        </mxCell>
        <mxCell id="bvmOk3qDwSl6TVnSMoPc-8" value="ConcessionariAuto" style="swimlane;fontStyle=0;align=center;verticalAlign=top;childLayout=stackLayout;horizontal=1;startSize=26;horizontalStack=0;resizeParent=1;resizeLast=0;collapsible=1;marginBottom=0;rounded=0;shadow=0;strokeWidth=1;" parent="WIyWlLk6GJQsqaUBKTNV-1" vertex="1">
          <mxGeometry x="453" y="260" width="177" height="96" as="geometry">
            <mxRectangle x="130" y="380" width="160" height="26" as="alternateBounds" />
          </mxGeometry>
        </mxCell>
        <mxCell id="bvmOk3qDwSl6TVnSMoPc-9" value="+ autos: ArrayList&lt;Automobil&gt;" style="text;align=left;verticalAlign=top;spacingLeft=4;spacingRight=4;overflow=hidden;rotatable=0;points=[[0,0.5],[1,0.5]];portConstraint=eastwest;" parent="bvmOk3qDwSl6TVnSMoPc-8" vertex="1">
          <mxGeometry y="26" width="177" height="29" as="geometry" />
        </mxCell>
        <mxCell id="bvmOk3qDwSl6TVnSMoPc-10" value="" style="line;html=1;strokeWidth=1;align=left;verticalAlign=middle;spacingTop=-1;spacingLeft=3;spacingRight=3;rotatable=0;labelPosition=right;points=[];portConstraint=eastwest;" parent="bvmOk3qDwSl6TVnSMoPc-8" vertex="1">
          <mxGeometry y="55" width="177" height="6" as="geometry" />
        </mxCell>
        <mxCell id="V21flKf6waBubNrhIwYf-4" value="&amp;nbsp;+ toString(): String" style="text;html=1;align=left;verticalAlign=middle;resizable=0;points=[];autosize=1;strokeColor=none;fillColor=none;" vertex="1" parent="bvmOk3qDwSl6TVnSMoPc-8">
          <mxGeometry y="61" width="177" height="26" as="geometry" />
        </mxCell>
      </root>
    </mxGraphModel>
  </diagram>
</mxfile>
